# xmcd
#
# Track frame offsets: 
#        150
#        8692
#        21434
#        31611
#        42972
#        52961
#        66167
#        77950
#        90105
#        99791
#        115528
#        133559
#        151785
#        164001
#        182117
#        197443
#
# Disc length: 2833 seconds
#
# Revision: 0
# Processed by: cddbd v1.5.2PL0 Copyright (c) Steve Scherf et al.
# Submitted via: ExactAudioCopy v0.99pb3
#
DISCID=b30b0f10
DTITLE=Sonny Burgess - Tear It Up
DYEAR=2006
DGENRE=Blues
TTITLE0=Tear It Up
TTITLE1=Around And Around
TTITLE2=Raw Deal
TTITLE3=Don't Start Cryin' Now
TTITLE4=Wicked
TTITLE5=Rock On Mars (Rocket Mix)
TTITLE6=Bop Crazy Baby
TTITLE7=Hoy Hoy
TTITLE8=Pointed Toe Shoes
TTITLE9=Cry Mercy
TTITLE10=Who Do You Love
TTITLE11=Down The Road
TTITLE12=Rock On Mars (Skeleton Mix)
TTITLE13=Farmers Blues
TTITLE14=Going Away Baby
TTITLE15=Howlin' Tomcat
EXTD=
EXTT0=
EXTT1=
EXTT2=
EXTT3=
EXTT4=
EXTT5=
EXTT6=
EXTT7=
EXTT8=
EXTT9=
EXTT10=
EXTT11=
EXTT12=
EXTT13=
EXTT14=
EXTT15=
PLAYORDER=
